<?xml version="1.0" encoding="UTF-8"?> <svg xmlns="http://www.w3.org/2000/svg" width="296" height="74" viewBox="0 0 296 74" fill="none"> <g clip-path="url(#clip0)"> <path d="M60.4748 40.6375L58.8422 43.8222C58.4794 44.5678 57.149 44.0439 57.5118 43.2378L63.5989 31.245C63.662 31.1246 63.758 31.0246 63.8758 30.9568C63.9936 30.889 64.1283 30.8561 64.2641 30.862C64.3967 30.8588 64.5275 30.8931 64.6416 30.9608C64.7557 31.0286 64.8483 31.127 64.9091 31.245L70.976 43.1773C71.5 44.0439 70.0085 44.5478 69.6255 43.7617L68.0533 40.6375H60.4748ZM64.2641 33.0188L61.0795 39.3678H67.4285L64.2641 33.0188Z" fill="#0A0812"></path> <path d="M72.8093 44.0239C72.2652 44.0239 72.0435 43.7617 72.0435 43.2779V31.7086C72.0435 30.7612 73.5349 30.7612 73.5349 31.7086V42.6935H81.0732C82.1011 42.6935 82.1011 44.0239 81.0732 44.0239H72.8093Z" fill="#0A0812"></path> <path d="M91.4727 43.5201C90.5262 43.9692 89.4966 44.2163 88.4494 44.2458C85.0027 44.2458 81.8987 41.4237 81.8987 37.433C81.8847 35.8859 82.4295 34.3858 83.433 33.2083C84.4365 32.0308 85.8313 31.255 87.361 31.0235C89.7192 30.7009 91.775 31.2856 93.3674 32.9583C93.9721 33.6438 92.8836 34.47 92.3193 33.8656C90.9487 32.4143 89.3564 32.1926 87.5827 32.394C85.1034 32.777 83.35 34.5305 83.35 37.4533C83.35 40.5168 85.7082 42.855 88.4896 42.855C89.3033 42.8407 90.103 42.6407 90.8277 42.2703C91.4672 41.9411 92.0304 41.481 92.4805 40.9199C92.9441 40.2346 94.1736 40.9803 93.6495 41.7263C93.0844 42.496 92.3362 43.1126 91.4727 43.5201V43.5201Z" fill="#0A0812"></path> <path d="M97.1153 37.1912H104.533V31.6887C104.533 30.7213 106.004 30.7213 106.004 31.6887V43.4394C106.007 43.5377 105.99 43.6355 105.954 43.7271C105.918 43.8187 105.864 43.9022 105.796 43.9727C105.727 44.0432 105.645 44.0992 105.554 44.1374C105.464 44.1757 105.367 44.1954 105.268 44.1954C105.17 44.1954 105.073 44.1757 104.982 44.1374C104.891 44.0992 104.809 44.0432 104.741 43.9727C104.672 43.9022 104.618 43.8187 104.583 43.7271C104.547 43.6355 104.53 43.5377 104.533 43.4394V38.4611H97.1153V43.4394C97.1153 44.4876 95.664 44.3667 95.664 43.4394V31.6887C95.664 30.701 97.1153 30.7614 97.1153 31.6887V37.1912Z" fill="#0A0812"></path> <path d="M109.51 42.6935H117.472C118.319 42.6935 118.44 44.0239 117.472 44.0239H108.987C108.866 44.0304 108.746 44.0122 108.634 43.9704C108.521 43.9287 108.418 43.8643 108.331 43.7812C108.244 43.698 108.175 43.598 108.128 43.4872C108.082 43.3764 108.058 43.2572 108.059 43.1369V32.0715C108.06 31.9528 108.085 31.8355 108.133 31.7268C108.181 31.6181 108.25 31.5202 108.337 31.4392C108.424 31.3581 108.526 31.2955 108.638 31.2552C108.749 31.2149 108.868 31.1977 108.987 31.2046H117.492C118.359 31.2046 118.319 32.4946 117.472 32.4946H109.51V37.0297H117.089C117.895 37.0297 117.936 38.3197 117.089 38.3197H109.51V42.6935Z" fill="#0A0812"></path> <path d="M131.137 31.5072C131.601 30.7815 132.528 31.0233 132.528 31.8698V43.4795C132.528 44.447 131.056 44.447 131.056 43.4795V34.3088L126.945 40.7383C126.882 40.8696 126.783 40.9805 126.66 41.0581C126.537 41.1357 126.395 41.1769 126.249 41.1769C126.104 41.1769 125.961 41.1357 125.838 41.0581C125.715 40.9805 125.616 40.8696 125.554 40.7383L121.442 34.3289V43.4795C121.442 44.447 119.971 44.447 119.971 43.4795V31.8698C119.971 31.0033 120.938 30.7815 121.341 31.5072L126.259 39.1662L131.137 31.5072Z" fill="#0A0812"></path> <path d="M134.945 31.4668C134.945 30.4591 136.457 30.4791 136.457 31.4668V43.52C136.457 44.4471 134.945 44.4874 134.945 43.52V31.4668Z" fill="#0A0812"></path> <path d="M138.916 40.8393C139.44 42.5123 141.677 42.875 143.289 42.875C145.003 42.875 147.663 42.351 147.663 40.3154C147.663 38.5616 145.547 38.4207 143.33 38.2393C140.548 38.0176 137.565 37.7555 137.565 34.7521C137.565 32.0917 140.629 30.9026 143.088 30.9026C145.204 30.9026 147.845 31.4065 148.691 33.7042C148.993 34.5104 147.623 34.8733 147.321 34.1878C146.716 32.6561 144.559 32.3939 143.108 32.3939C141.758 32.3939 139.137 32.9382 139.137 34.7725C139.137 36.526 141.153 36.7073 143.491 36.8889C146.252 37.1307 149.215 37.2717 149.215 40.295C149.215 43.3789 145.768 44.3262 143.289 44.3262C141.234 44.3262 138.089 43.6209 137.424 41.202C137.182 40.3154 138.754 40.0129 138.916 40.8393Z" fill="#0A0812"></path> <path d="M159.494 31.1847C159.589 31.1787 159.684 31.1923 159.774 31.2245C159.863 31.2568 159.945 31.307 160.015 31.3722C160.084 31.4373 160.139 31.516 160.177 31.6034C160.215 31.6908 160.235 31.7849 160.235 31.8801C160.235 31.9753 160.215 32.0695 160.177 32.1569C160.139 32.2442 160.084 32.3229 160.015 32.3881C159.945 32.4533 159.863 32.5035 159.774 32.5357C159.684 32.568 159.589 32.5815 159.494 32.5755H154.999C154.999 36.2034 155.019 39.892 155.019 43.5201C155.019 43.6198 155 43.7185 154.961 43.8104C154.922 43.9022 154.865 43.9854 154.794 44.0549C154.723 44.1245 154.638 44.179 154.545 44.2152C154.452 44.2514 154.353 44.2686 154.253 44.2658C154.156 44.2676 154.059 44.2494 153.969 44.2123C153.879 44.1752 153.797 44.12 153.729 44.0501C153.661 43.9802 153.608 43.8971 153.573 43.806C153.539 43.7148 153.523 43.6175 153.528 43.5201V32.5755H149.053C148.961 32.5775 148.869 32.561 148.783 32.527C148.696 32.4929 148.618 32.442 148.552 32.3773C148.486 32.3125 148.433 32.2351 148.397 32.1498C148.361 32.0644 148.343 31.9727 148.343 31.8801C148.343 31.7875 148.361 31.6959 148.397 31.6105C148.433 31.5251 148.486 31.4478 148.552 31.383C148.618 31.3182 148.696 31.2673 148.783 31.2333C148.869 31.1992 148.961 31.1827 149.053 31.1847H159.494Z" fill="#0A0812"></path> <path d="M166.588 40.4159L164.794 43.9836C164.75 44.0599 164.679 44.1161 164.594 44.14C164.51 44.1639 164.419 44.1534 164.342 44.111C164.265 44.0686 164.208 43.9975 164.183 43.9133C164.158 43.8291 164.168 43.7384 164.209 43.661L170.619 31.0234C170.647 30.9679 170.69 30.9215 170.744 30.8894C170.797 30.8573 170.859 30.8409 170.921 30.8421C170.981 30.8413 171.039 30.8581 171.09 30.8903C171.14 30.9226 171.179 30.9689 171.203 31.0234L177.633 43.661C177.674 43.7384 177.684 43.8291 177.659 43.9133C177.634 43.9975 177.577 44.0686 177.5 44.111C177.423 44.1534 177.333 44.1639 177.248 44.14C177.164 44.1161 177.092 44.0599 177.048 43.9836L175.255 40.4159H166.588ZM170.921 31.8295L166.89 39.8114H174.932L170.921 31.8295Z" fill="#0A0812"></path> <path d="M187.146 43.5201C186.127 44.0481 184.987 44.2984 183.84 44.2458C182.693 44.1933 181.581 43.8396 180.615 43.2205C179.648 42.6015 178.862 41.7387 178.335 40.7192C177.808 39.6997 177.558 38.5593 177.612 37.4128C177.692 34.0064 179.869 31.5073 183.034 31.0034C185.412 30.7009 187.307 31.0839 189.04 32.9382C189.343 33.3011 188.859 33.6638 188.557 33.3412C186.924 31.5677 185.332 31.4064 183.135 31.6683C180.293 32.1117 178.338 34.1677 178.257 37.4329C178.221 38.4632 178.454 39.4852 178.933 40.3977C179.413 41.3102 180.123 42.0816 180.992 42.6355C181.862 43.1894 182.861 43.5066 183.891 43.5557C184.921 43.6047 185.945 43.384 186.864 42.9153C187.601 42.5431 188.248 42.0132 188.758 41.3632C188.781 41.3234 188.812 41.2887 188.849 41.2617C188.886 41.2346 188.929 41.2156 188.974 41.206C189.019 41.1965 189.065 41.1965 189.11 41.2061C189.155 41.2157 189.197 41.2347 189.234 41.2618C189.271 41.2889 189.302 41.3235 189.325 41.3634C189.348 41.4033 189.362 41.4476 189.367 41.4933C189.371 41.539 189.366 41.5852 189.351 41.6288C189.337 41.6724 189.313 41.7124 189.282 41.7463C188.731 42.5086 187.996 43.1189 187.146 43.5201V43.5201Z" fill="#0A0812"></path> <path d="M199.581 43.5201C198.562 44.0481 197.422 44.2984 196.275 44.2458C195.129 44.1933 194.016 43.8396 193.05 43.2205C192.083 42.6015 191.297 41.7387 190.77 40.7192C190.243 39.6997 189.994 38.5593 190.047 37.4128C190.128 34.0064 192.305 31.5073 195.469 31.0034C197.848 30.7009 199.742 31.0839 201.476 32.9382C201.778 33.3011 201.294 33.6638 200.992 33.3412C199.359 31.5677 197.767 31.4064 195.57 31.6683C192.728 32.1117 190.773 34.1677 190.692 37.4329C190.656 38.4632 190.889 39.4852 191.369 40.3977C191.848 41.3102 192.558 42.0816 193.428 42.6355C194.297 43.1894 195.296 43.5066 196.326 43.5557C197.356 43.6047 198.381 43.384 199.299 42.9153C200.037 42.5431 200.683 42.0132 201.194 41.3632C201.216 41.3234 201.247 41.2887 201.284 41.2616C201.322 41.2345 201.364 41.2155 201.409 41.206C201.454 41.1964 201.5 41.1964 201.545 41.206C201.59 41.2156 201.633 41.2346 201.67 41.2617C201.707 41.2888 201.738 41.3235 201.761 41.3634C201.783 41.4033 201.798 41.4476 201.802 41.4933C201.807 41.539 201.801 41.5852 201.787 41.6288C201.772 41.6724 201.749 41.7124 201.718 41.7463C201.167 42.5086 200.432 43.1189 199.581 43.5201V43.5201Z" fill="#0A0812"></path> <path d="M203.934 43.3788H212.843C212.927 43.3801 213.008 43.4147 213.068 43.4751C213.127 43.5354 213.16 43.6167 213.16 43.7013C213.16 43.786 213.127 43.8672 213.068 43.9276C213.008 43.9879 212.927 44.0225 212.843 44.0239H203.813C203.741 44.0259 203.669 44.0132 203.602 43.9865C203.535 43.9599 203.475 43.9198 203.424 43.8689C203.373 43.818 203.333 43.7572 203.306 43.6902C203.279 43.6233 203.267 43.5516 203.269 43.4796V31.7289C203.269 31.6584 203.283 31.5886 203.311 31.5238C203.338 31.4589 203.379 31.4003 203.43 31.3513C203.48 31.3024 203.541 31.2642 203.606 31.239C203.672 31.2138 203.743 31.2022 203.813 31.2047H212.863C212.903 31.2051 212.943 31.2135 212.98 31.2295C213.017 31.2455 213.051 31.2688 213.079 31.2979C213.106 31.327 213.128 31.3615 213.143 31.3991C213.157 31.4368 213.164 31.477 213.162 31.5173C213.161 31.5576 213.152 31.5973 213.135 31.6339C213.118 31.6706 213.094 31.7035 213.064 31.7307C213.034 31.7579 212.999 31.7789 212.961 31.7924C212.923 31.8059 212.883 31.8117 212.843 31.8094H203.934V37.3724H212.44C212.481 37.3704 212.522 37.3767 212.56 37.391C212.598 37.4053 212.634 37.4273 212.663 37.4556C212.693 37.4838 212.717 37.5178 212.733 37.5555C212.749 37.5932 212.757 37.6337 212.757 37.6747C212.757 37.7157 212.749 37.7563 212.733 37.7939C212.717 37.8316 212.693 37.8656 212.663 37.8939C212.634 37.9222 212.598 37.9441 212.56 37.9584C212.522 37.9727 212.481 37.9791 212.44 37.9771H203.934V43.3788Z" fill="#0A0812"></path> <path d="M215.523 44.0239C215.261 44.0239 215.16 43.8827 215.16 43.6409V31.4468C215.155 31.399 215.161 31.3507 215.176 31.3051C215.191 31.2594 215.215 31.2175 215.247 31.1819C215.28 31.1463 215.319 31.1178 215.363 31.0984C215.407 31.0789 215.455 31.0688 215.503 31.0688C215.551 31.0688 215.598 31.0789 215.642 31.0984C215.686 31.1178 215.725 31.1463 215.758 31.1819C215.79 31.2175 215.814 31.2594 215.83 31.3051C215.845 31.3507 215.85 31.399 215.845 31.4468V43.3991H224.311C224.354 43.3954 224.398 43.4008 224.439 43.4148C224.48 43.4288 224.517 43.4512 224.549 43.4806C224.581 43.51 224.607 43.5457 224.624 43.5854C224.642 43.6252 224.651 43.6681 224.651 43.7115C224.651 43.7549 224.642 43.7979 224.624 43.8376C224.607 43.8774 224.581 43.9131 224.549 43.9424C224.517 43.9718 224.48 43.9942 224.439 44.0082C224.398 44.0223 224.354 44.0276 224.311 44.0239L215.523 44.0239Z" fill="#0A0812"></path> <path d="M226.406 43.3788H235.315C235.4 43.3801 235.48 43.4147 235.54 43.4751C235.599 43.5354 235.632 43.6167 235.632 43.7013C235.632 43.786 235.599 43.8672 235.54 43.9276C235.48 43.9879 235.4 44.0225 235.315 44.0239H226.285C226.213 44.0259 226.141 44.0132 226.074 43.9865C226.008 43.9599 225.947 43.9198 225.896 43.8689C225.845 43.818 225.805 43.7572 225.778 43.6902C225.752 43.6233 225.739 43.5516 225.741 43.4796V31.7289C225.741 31.6584 225.755 31.5886 225.783 31.5238C225.811 31.4589 225.851 31.4003 225.902 31.3513C225.953 31.3024 226.013 31.2642 226.079 31.239C226.144 31.2138 226.215 31.2022 226.285 31.2047H235.335C235.375 31.2051 235.415 31.2135 235.452 31.2295C235.489 31.2455 235.523 31.2688 235.551 31.2979C235.579 31.327 235.6 31.3614 235.615 31.3991C235.629 31.4368 235.636 31.477 235.635 31.5173C235.633 31.5576 235.624 31.5973 235.607 31.6339C235.59 31.6706 235.566 31.7035 235.536 31.7307C235.506 31.7579 235.472 31.7789 235.434 31.7924C235.396 31.8059 235.355 31.8117 235.315 31.8094H226.406V37.3724H234.912C234.953 37.3704 234.994 37.3767 235.032 37.391C235.071 37.4053 235.106 37.4273 235.135 37.4556C235.165 37.4838 235.189 37.5178 235.205 37.5555C235.221 37.5932 235.229 37.6337 235.229 37.6747C235.229 37.7157 235.221 37.7563 235.205 37.7939C235.189 37.8316 235.165 37.8656 235.135 37.8939C235.106 37.9222 235.071 37.9441 235.032 37.9584C234.994 37.9727 234.953 37.9791 234.912 37.9771H226.406V43.3788Z" fill="#0A0812"></path> <path d="M238.277 39.2872V43.7418C238.278 43.8287 238.244 43.9124 238.184 43.975C238.124 44.0376 238.041 44.0742 237.954 44.0768C237.867 44.0794 237.783 44.0479 237.719 43.989C237.655 43.9302 237.616 43.8486 237.612 43.7618V31.5273C237.61 31.4817 237.617 31.4363 237.634 31.3938C237.65 31.3513 237.675 31.3126 237.708 31.2804C237.74 31.2482 237.778 31.223 237.821 31.2065C237.863 31.19 237.909 31.1826 237.954 31.1847H243.034C246.44 31.1847 248.173 33.0994 248.173 35.3772C248.173 37.5538 246.722 39.0858 243.78 39.3075L247.952 43.6005C248.274 43.9432 247.851 44.3866 247.529 44.064L242.993 39.2872H238.277ZM238.277 38.7028H243.054C246.178 38.7028 247.529 37.2111 247.488 35.3772C247.468 33.4017 245.815 31.8095 243.054 31.8095H238.277V38.7028Z" fill="#0A0812"></path> <path d="M250.652 40.4159L248.858 43.9836C248.814 44.0599 248.743 44.1161 248.658 44.14C248.574 44.1639 248.483 44.1534 248.406 44.111C248.329 44.0686 248.272 43.9975 248.247 43.9133C248.223 43.8291 248.232 43.7384 248.273 43.661L254.683 31.0234C254.711 30.9679 254.755 30.9215 254.808 30.8894C254.862 30.8573 254.923 30.841 254.985 30.8421C255.045 30.8413 255.104 30.8581 255.154 30.8903C255.204 30.9226 255.243 30.9689 255.268 31.0234L261.697 43.661C261.739 43.7384 261.748 43.8291 261.723 43.9133C261.698 43.9975 261.641 44.0686 261.564 44.111C261.487 44.1534 261.397 44.1639 261.312 44.14C261.228 44.1161 261.156 44.0599 261.113 43.9836L259.319 40.4159H250.652ZM254.985 31.8295L250.954 39.8114H258.996L254.985 31.8295Z" fill="#0A0812"></path> <path d="M270.767 31.1846C271.25 31.1846 271.25 31.7893 270.767 31.7893H265.546L265.566 43.7213C265.569 43.7706 265.561 43.8198 265.544 43.866C265.527 43.9122 265.501 43.9545 265.467 43.9903C265.433 44.0261 265.392 44.0546 265.347 44.0742C265.302 44.0938 265.253 44.1041 265.204 44.1043C265.155 44.1035 265.108 44.0927 265.064 44.0726C265.02 44.0525 264.981 44.0236 264.949 43.9877C264.916 43.9517 264.892 43.9095 264.877 43.8637C264.862 43.8178 264.856 43.7694 264.861 43.7213V31.7893H259.661C259.177 31.7893 259.177 31.1846 259.661 31.1846H270.767Z" fill="#0A0812"></path> <path d="M270.665 37.3928C270.766 34.2685 272.701 31.5073 275.865 31.0034C276.587 30.9025 277.32 30.9025 278.042 31.0034C281.227 31.5073 283.404 34.2685 283.484 37.3928C283.605 41.2827 280.582 44.2657 277.075 44.2657C273.588 44.2657 270.564 41.2827 270.665 37.3928ZM271.35 37.4128C271.25 40.8797 273.95 43.641 277.075 43.641C280.219 43.641 282.92 40.8797 282.819 37.4128C282.738 34.5911 280.803 32.0917 277.941 31.6482C277.287 31.5474 276.621 31.5474 275.966 31.6482C273.124 32.0917 271.431 34.5911 271.35 37.4128Z" fill="#0A0812"></path> <path d="M286.104 39.2872V43.7418C286.104 43.8287 286.071 43.9124 286.011 43.975C285.95 44.0376 285.868 44.0742 285.781 44.0768C285.694 44.0794 285.609 44.0479 285.545 43.989C285.482 43.9302 285.443 43.8486 285.438 43.7618V31.5273C285.436 31.4817 285.444 31.4363 285.46 31.3938C285.477 31.3513 285.502 31.3126 285.534 31.2804C285.566 31.2482 285.605 31.223 285.648 31.2065C285.69 31.19 285.736 31.1826 285.781 31.1847H290.86C294.267 31.1847 296 33.0994 296 35.3772C296 37.5538 294.549 39.0858 291.606 39.3075L295.778 43.6005C296.101 43.9432 295.678 44.3866 295.355 44.064L290.82 39.2872H286.104ZM286.104 38.7028H290.881C294.005 38.7028 295.355 37.2111 295.315 35.3772C295.295 33.4017 293.642 31.8095 290.881 31.8095H286.104V38.7028Z" fill="#0A0812"></path> <path d="M3.55924 62.5324H6.21065C6.37331 62.5295 6.53244 62.4845 6.67257 62.4018C6.81269 62.3192 6.92904 62.2017 7.01029 62.0607L21.8694 36.3176L27.6981 46.4072H19.2109L16.8126 50.5609H42.8425C42.984 50.5629 43.124 50.5321 43.2515 50.4709C43.3791 50.4096 43.4906 50.3195 43.5774 50.2078C43.6949 50.0736 43.7697 49.9075 43.7924 49.7306C43.8151 49.5538 43.7846 49.3742 43.7048 49.2147L22.8113 13.0259C22.7207 12.8636 22.5885 12.7284 22.4283 12.6341C22.2682 12.5399 22.0858 12.4899 21.8999 12.4895C21.7159 12.4962 21.5365 12.5482 21.3774 12.6409C21.2184 12.7336 21.0847 12.8641 20.9881 13.0208L0.125169 49.1401C0.049121 49.2856 0.00628919 49.4461 -0.000240098 49.6101C-0.0039575 49.7421 0.020353 49.8733 0.0710868 49.9952C0.121821 50.117 0.197824 50.2268 0.29408 50.3171C0.390335 50.4074 0.504655 50.4763 0.629492 50.5192C0.754328 50.5621 0.886844 50.578 1.01829 50.5659H8.84652L2.75284 61.11C2.67629 61.2459 2.63411 61.3985 2.62998 61.5544C2.62585 61.7104 2.65988 61.865 2.72913 62.0048C2.8022 62.1632 2.91935 62.2972 3.06656 62.3907C3.21377 62.4843 3.38481 62.5335 3.55924 62.5324ZM20.9 29.6757L11.2502 46.4072H6.49733L21.8931 19.7493L37.2886 46.4072H32.4899L22.8503 29.6859C22.7521 29.5125 22.6094 29.3685 22.437 29.2686C22.2646 29.1686 22.0686 29.1164 21.8694 29.1173C21.6719 29.1115 21.4767 29.1606 21.3056 29.2592C21.1344 29.3578 20.994 29.502 20.9 29.6757Z" fill="#0A0812"></path> <path d="M40.1574 62.5323H37.5334C37.3727 62.5302 37.2151 62.4868 37.0759 62.4063C36.9367 62.3257 36.8206 62.2108 36.7386 62.0725L31.5482 53.0881H36.3482L40.9737 61.0963C41.0597 61.2405 41.1058 61.4049 41.1076 61.5728C41.1093 61.7406 41.0665 61.9059 40.9835 62.0519C40.9006 62.1978 40.7804 62.3191 40.6353 62.4035C40.4902 62.4879 40.3253 62.5323 40.1574 62.5323V62.5323Z" fill="#0A0812"></path> </g> <defs> <clipPath id="clip0"> <rect width="296" height="74" fill="white"></rect> </clipPath> </defs> </svg> 