<?xml version="1.0" encoding="UTF-8"?> <svg xmlns="http://www.w3.org/2000/svg" width="620" height="620" viewBox="0 0 620 620" fill="none"> <path d="M620 341C604.458 497.613 470.356 620 309.994 620C149.633 620 15.542 497.613 0 341C59.0296 343.563 113.45 357.748 154.399 418.782C216.015 510.62 231.881 602.459 307.679 604.286L309.994 604.314C387.792 604.314 403.352 511.548 465.59 418.782C506.542 357.743 560.967 343.561 620 341ZM309.993 0C470.354 0 604.457 122.387 620 279C560.965 276.439 506.54 262.257 465.588 201.218C403.973 109.38 388.106 17.5415 312.308 15.7139L309.993 15.6862C232.195 15.6862 216.635 108.452 154.397 201.218C113.448 262.253 59.0279 276.437 0 279C15.5402 122.387 149.631 0 309.993 0Z" fill="white"></path> </svg> 