<svg class="t460__svg" xmlns="http://www.w3.org/2000/svg" width="25" height="25" viewBox="0 0 25 25" fill="#fff"><desc>Instagram</desc><path d="M16.396 3.312H8.604c-2.92 0-5.292 2.37-5.292 5.273v7.846c0 2.887 2.37 5.257 5.292 5.257h7.79c2.923 0 5.293-2.37 5.293-5.274V8.586c0-2.903-2.37-5.274-5.29-5.274zM7.722 12.5c0-2.64 2.142-4.778 4.778-4.778 2.636 0 4.777 2.138 4.777 4.778s-2.142 4.777-4.777 4.777c-2.636 0-4.778-2.137-4.778-4.777zm10.034-4.318c-.615 0-1.104-.487-1.104-1.102s.488-1.103 1.104-1.103c.614 0 1.102.488 1.102 1.103s-.488 1.102-1.102 1.102z"/><path d="M12.5 9.376c-1.73 0-3.124 1.398-3.124 3.124 0 1.725 1.393 3.124 3.124 3.124 1.732 0 3.124-1.4 3.124-3.124 0-1.725-1.413-3.124-3.124-3.124z"/></svg>