<?xml version="1.0" encoding="UTF-8"?> <svg xmlns="http://www.w3.org/2000/svg" width="80" height="80" viewBox="0 0 80 80" fill="none"> <path d="M67.985 66.9998L68.0001 66.9974V44.9923C68.0001 34.2271 65.6825 25.9346 53.0975 25.9346C47.0473 25.9346 42.9874 29.2546 41.3299 32.4021H41.155V26.9396H29.2224V66.9974H41.6473V47.1622C41.6473 41.9397 42.6373 36.8896 49.105 36.8896C55.4774 36.8896 55.5725 42.8497 55.5725 47.4973V66.9998H67.985Z" fill="white"></path> <path d="M8.98999 26.9424H21.4301V67.0001H8.98999V26.9424Z" fill="white"></path> <path d="M15.2051 7C11.2275 7 8 10.2275 8 14.205C8 18.1826 11.2275 21.4776 15.2051 21.4776C19.1826 21.4776 22.4101 18.1826 22.4101 14.205C22.4076 10.2275 19.1801 7 15.2051 7Z" fill="white"></path> </svg> 