<?xml version="1.0" encoding="UTF-8"?> <svg xmlns="http://www.w3.org/2000/svg" width="340" height="106" viewBox="0 0 340 106" fill="none"> <path d="M175.419 49.4582V34.6843H176.996V49.4582H175.419ZM190.379 49.4582L182.532 37.5957V49.4582H180.95V34.6843H182.449L190.301 46.5034V34.6496H191.879V49.4234L190.379 49.4582ZM200.617 49.5798C199.916 49.5882 199.221 49.4568 198.572 49.1935C197.923 48.9301 197.333 48.54 196.837 48.046C195.446 46.6511 195.446 45.1998 195.446 42.0626C195.446 38.9253 195.446 37.474 196.837 36.0792C197.333 35.5851 197.923 35.195 198.572 34.9316C199.221 34.6683 199.916 34.5369 200.617 34.5453C203.276 34.5453 205.249 36.1661 205.744 38.947H204.128C203.732 37.1394 202.464 35.9575 200.617 35.9575C200.143 35.9516 199.673 36.0405 199.235 36.2188C198.796 36.3972 198.397 36.6614 198.062 36.996C197.128 37.952 197.023 38.9688 197.023 42.0626C197.023 45.1564 197.128 46.1732 198.062 47.1291C198.397 47.4637 198.796 47.7279 199.235 47.9063C199.673 48.0846 200.143 48.1735 200.617 48.1676C202.464 48.1676 203.772 46.9857 204.167 45.1781H205.744C205.266 47.9417 203.254 49.5624 200.617 49.5624V49.5798ZM209.047 49.4582V34.6843H218.228V36.0965H210.624V41.3108H217.107V42.723H210.624V48.0633H218.228V49.4582H209.047ZM226.919 43.3748H223.008V49.4582H221.431V34.6843H226.936C229.634 34.6843 231.503 36.3703 231.503 39.0296C231.503 41.6889 229.617 43.3748 226.919 43.3748ZM226.771 36.0618H222.99V41.9409H226.771C228.618 41.9409 229.908 40.9458 229.908 38.9905C229.908 37.0351 228.618 36.0618 226.771 36.0618ZM239.276 36.0618V49.4582H237.695V36.0618H233.419V34.6496H243.552V36.0618H239.276ZM246.481 49.4582V34.6843H248.063V49.4582H246.481ZM260.559 48.046C259.547 49.0292 258.191 49.5791 256.779 49.5791C255.368 49.5791 254.012 49.0292 252.999 48.046C251.608 46.6511 251.608 45.1998 251.608 42.0626C251.608 38.9253 251.608 37.474 252.999 36.0792C254.012 35.0959 255.368 34.546 256.779 34.546C258.191 34.546 259.547 35.0959 260.559 36.0792C261.95 37.474 261.95 38.9253 261.95 42.0626C261.95 45.1998 261.967 46.6338 260.559 48.0286V48.046ZM259.334 37.0177C258.999 36.6814 258.601 36.4145 258.162 36.2324C257.724 36.0503 257.254 35.9566 256.779 35.9566C256.304 35.9566 255.834 36.0503 255.396 36.2324C254.957 36.4145 254.559 36.6814 254.224 37.0177C253.29 37.9693 253.186 38.9688 253.186 42.0626C253.186 45.1564 253.29 46.1558 254.224 47.1074C254.559 47.4437 254.957 47.7106 255.396 47.8927C255.834 48.0748 256.304 48.1685 256.779 48.1685C257.254 48.1685 257.724 48.0748 258.162 47.8927C258.601 47.7106 258.999 47.4437 259.334 47.1074C260.268 46.1558 260.373 45.1564 260.373 42.0626C260.373 38.9688 260.268 37.952 259.334 37.0004V37.0177ZM274.947 49.4582L267.095 37.5957V49.4582H265.517V34.6843H267.012L274.864 46.5034V34.6496H276.441V49.4234L274.947 49.4582ZM180.924 64.132H177.014V70.2154H175.436V55.4416H180.942C183.64 55.4416 185.508 57.1232 185.508 59.7868C185.508 62.4504 183.623 64.132 180.924 64.132ZM180.777 56.8451H176.996V62.7242H180.777C182.628 62.7242 183.914 61.7248 183.914 59.7738C183.914 57.8227 182.628 56.8451 180.777 56.8451ZM197.049 70.2197L193.686 63.6584H190.136V70.2197H188.554V55.4459H194.225C196.802 55.4459 198.609 57.0058 198.609 59.5608C198.654 60.5018 198.351 61.4263 197.757 62.1575C197.163 62.8886 196.32 63.3751 195.39 63.5237L198.9 70.2327L197.049 70.2197ZM194.082 56.8451H190.136V62.2679H194.082C195.82 62.2679 197.028 61.3728 197.028 59.5652C197.028 57.7576 195.802 56.8451 194.082 56.8451ZM210.594 68.8075C209.582 69.7938 208.226 70.3458 206.813 70.3458C205.401 70.3458 204.044 69.7938 203.033 68.8075C201.642 67.417 201.642 65.9614 201.642 62.8285C201.642 59.6955 201.642 58.2355 203.033 56.8451C204.044 55.8588 205.401 55.3067 206.813 55.3067C208.226 55.3067 209.582 55.8588 210.594 56.8451C211.984 58.2355 211.984 59.6912 211.984 62.8285C211.984 65.9657 211.997 67.4127 210.594 68.8032V68.8075ZM209.39 57.7749C209.055 57.4386 208.657 57.1717 208.218 56.9896C207.78 56.8075 207.31 56.7138 206.835 56.7138C206.36 56.7138 205.89 56.8075 205.452 56.9896C205.013 57.1717 204.615 57.4386 204.28 57.7749C203.346 58.7309 203.241 59.7303 203.241 62.8241C203.241 65.9179 203.346 66.913 204.28 67.8689C204.615 68.2053 205.013 68.4721 205.452 68.6542C205.89 68.8363 206.36 68.9301 206.835 68.9301C207.31 68.9301 207.78 68.8363 208.218 68.6542C208.657 68.4721 209.055 68.2053 209.39 67.8689C210.324 66.913 210.428 65.9179 210.428 62.8241C210.428 59.7303 210.302 58.7309 209.39 57.7749ZM224.259 68.638C223.766 69.1616 223.174 69.5817 222.516 69.8739C221.859 70.1661 221.15 70.3245 220.431 70.3399C219.712 70.3552 218.997 70.2273 218.328 69.9634C217.659 69.6996 217.049 69.3052 216.533 68.8032C215.143 67.4127 215.143 65.957 215.143 62.8241C215.143 59.6912 215.143 58.2312 216.533 56.8407C217.029 56.3447 217.619 55.953 218.268 55.6888C218.917 55.4246 219.613 55.2932 220.314 55.3025C223.138 55.3025 225.05 57.1318 225.485 59.7303H223.907C223.473 57.8575 222.169 56.7147 220.314 56.7147C219.839 56.7129 219.368 56.8057 218.93 56.9878C218.491 57.1698 218.093 57.4374 217.759 57.7749C216.825 58.7309 216.72 59.7303 216.72 62.8241C216.72 65.9179 216.825 66.9347 217.759 67.8907C218.094 68.2253 218.493 68.4895 218.932 68.6678C219.37 68.8462 219.84 68.935 220.314 68.9292C220.846 68.938 221.373 68.8288 221.858 68.6094C222.342 68.39 222.772 68.0659 223.117 67.6604C223.719 66.9037 224.015 65.9484 223.946 64.9837V63.8626H220.314V62.4678H225.528V64.8142C225.506 66.5219 225.15 67.6604 224.238 68.638H224.259ZM237.512 70.2154L234.149 63.654H230.595V70.2154H229.017V55.4416H234.688C237.265 55.4416 239.072 57.0015 239.072 59.5565C239.116 60.4973 238.812 61.4213 238.218 62.1522C237.624 62.8831 236.782 63.3698 235.852 63.5193L239.363 70.2284L237.512 70.2154ZM234.523 56.8451H230.573V62.2679H234.523C236.261 62.2679 237.469 61.3728 237.469 59.5652C237.469 57.7576 236.243 56.8451 234.523 56.8451ZM252.108 70.2197L250.922 66.8782H244.465L243.283 70.2154H241.601L247.041 55.4416H248.371L253.794 70.2154L252.108 70.2197ZM247.724 57.7141L244.943 65.5355H250.465L247.724 57.7141ZM267.616 70.2154V58.9786L263.566 67.8907H262.215L258.1 58.9786V70.2154H256.523V55.4416H258.1L262.919 65.931L267.616 55.4285H269.193V70.2023L267.616 70.2154Z" fill="#0A0812"></path> <path d="M157.59 16.0781H156.508V88.8304H157.59V16.0781Z" fill="#0A0812"></path> <path d="M95.436 67.1434V80.9569H99.3467V67.1434H95.436ZM64.6413 67.1434V80.9742H68.6042V70.4544H71.6459C72.6583 70.4544 73.3839 70.7064 73.8706 71.2235C74.4876 71.884 74.7397 72.9616 74.7397 74.8822V80.9656H78.5635V73.3136C78.5635 67.8603 75.0873 67.126 71.6632 67.126H64.6413V67.1434ZM101.737 67.126V80.9395H108.085C111.466 80.9395 112.574 80.3789 113.764 79.1188C114.612 78.2498 115.155 76.2988 115.155 74.1826C115.155 72.2403 114.694 70.5109 113.89 69.4333C112.439 67.504 110.349 67.126 107.229 67.126H101.737ZM105.621 70.1329H107.303C109.745 70.1329 111.322 71.2279 111.322 74.0436C111.322 76.8593 109.745 77.9543 107.303 77.9543H105.621V70.1329ZM89.7916 67.126L86.5239 78.0716L83.378 67.1434H79.1501L83.6213 80.9569H89.2701L93.8066 67.1434L89.7916 67.126ZM116.975 80.9395H120.886V67.1434H116.975V80.9395ZM127.947 67.1303L122.485 80.9525H126.344L127.213 78.5105H133.678L134.5 80.9525H138.689L133.183 67.1477L127.947 67.1303ZM140.692 81.361C140.45 81.3601 140.215 81.2878 140.015 81.1531C139.814 81.0184 139.658 80.8274 139.567 80.6042C139.475 80.381 139.451 80.1357 139.499 79.8991C139.547 79.6625 139.663 79.4454 139.834 79.2751C140.005 79.1047 140.223 78.9889 140.459 78.9421C140.696 78.8953 140.941 78.9198 141.164 79.0123C141.387 79.1049 141.578 79.2614 141.712 79.4621C141.846 79.6628 141.917 79.8987 141.917 80.14C141.919 80.3021 141.889 80.4631 141.829 80.6136C141.768 80.764 141.678 80.9009 141.564 81.0162C141.45 81.1314 141.314 81.2228 141.164 81.285C141.015 81.3472 140.854 81.379 140.692 81.3784V81.361ZM140.692 79.1579C140.496 79.1545 140.303 79.2095 140.139 79.316C139.974 79.4224 139.845 79.5755 139.768 79.7556C139.69 79.9358 139.669 80.1349 139.705 80.3275C139.742 80.5201 139.835 80.6974 139.972 80.8369C140.11 80.9765 140.286 81.0718 140.478 81.1108C140.67 81.1498 140.869 81.1307 141.051 81.0559C141.232 80.9811 141.387 80.854 141.495 80.6909C141.604 80.5278 141.662 80.336 141.661 80.14C141.662 80.0126 141.638 79.8863 141.589 79.7684C141.541 79.6506 141.469 79.5436 141.379 79.4537C141.289 79.3638 141.182 79.2929 141.064 79.2451C140.945 79.1973 140.819 79.1736 140.692 79.1753V79.1579ZM140.913 80.7874L140.674 80.2877H140.535V80.7874H140.248V79.4838H140.779C140.834 79.4803 140.89 79.4881 140.942 79.5067C140.994 79.5254 141.042 79.5545 141.083 79.5924C141.124 79.6302 141.156 79.6759 141.178 79.7267C141.201 79.7775 141.213 79.8324 141.213 79.8879C141.215 79.963 141.192 80.0367 141.149 80.0983C141.106 80.16 141.045 80.2065 140.974 80.2312L141.248 80.7787L140.913 80.7874ZM140.739 79.7315H140.535V80.0661H140.735C140.759 80.07 140.784 80.0686 140.808 80.062C140.831 80.0554 140.853 80.0437 140.872 80.0278C140.891 80.0119 140.906 79.9922 140.916 79.9699C140.926 79.9476 140.932 79.9233 140.932 79.8988C140.932 79.8743 140.926 79.85 140.916 79.8277C140.906 79.8054 140.891 79.7857 140.872 79.7698C140.853 79.7539 140.831 79.7422 140.808 79.7356C140.784 79.729 140.759 79.7276 140.735 79.7315H140.739ZM130.489 69.6506L132.862 76.1163H128.043L130.489 69.6506Z" fill="#0A0812"></path> <path d="M90.2609 34.7887V31.4689C90.5824 31.4689 90.9083 31.4298 91.2429 31.4211C100.368 31.1343 106.321 39.2165 106.321 39.2165C106.321 39.2165 99.8899 48.1546 92.9375 48.1546C92.0233 48.1573 91.1147 48.0105 90.2478 47.7201V37.6565C93.7935 38.091 94.5062 39.6466 96.6353 43.188L101.376 39.2034C101.376 39.2034 97.9302 34.6844 92.0945 34.6844C91.4818 34.6869 90.8696 34.7232 90.2609 34.793V34.7887ZM90.2609 23.83V28.7836C90.5867 28.7575 90.9126 28.7358 91.2429 28.7227C103.905 28.2882 112.157 39.0774 112.157 39.0774C112.157 39.0774 102.68 50.5619 92.8072 50.5619C91.9534 50.5605 91.1015 50.4849 90.2609 50.3359V53.3776C90.964 53.469 91.6723 53.5155 92.3813 53.5166C101.567 53.5166 108.211 48.8412 114.646 43.3053C115.711 44.1744 120.078 46.2253 120.977 47.1335C114.859 52.2391 100.603 56.3497 92.5204 56.3497C91.7657 56.3486 91.0116 56.3095 90.2609 56.2324V60.5386H125.179V23.8213L90.2609 23.83ZM90.2609 47.7288V50.3359C81.7616 48.8281 79.3978 40.0247 79.3978 40.0247C82.3273 37.1079 86.1542 35.2633 90.2609 34.7887V37.6565C86.7021 37.222 83.9255 40.5418 83.9255 40.5418C83.9255 40.5418 85.4811 46.1167 90.2739 47.7201L90.2609 47.7288ZM75.1655 39.6423C76.9663 37.296 79.2413 35.3554 81.8423 33.9472C84.4432 32.5389 87.3117 31.6945 90.2609 31.4689V28.7836C79.1197 29.6743 69.4732 39.0774 69.4732 39.0774C69.4732 39.0774 74.9395 54.8159 90.2609 56.2541V53.3993C79.0328 51.9915 75.1655 39.6423 75.1655 39.6423Z" fill="#0A0812"></path> </svg> 