<svg class="t460__svg" xmlns="http://www.w3.org/2000/svg" width="25" height="25" viewBox="0 0 48 48"><desc>Twitter</desc><path d="M41.8 12.7c-1.3.6-2.8 1-4.2 1.1 1.5-1 2.6-2.3 3.2-4-1.5.8-2.9 1.5-4.7 1.8-1.3-1.5-3.2-2.3-5.3-2.3-4 0-7.3 3.2-7.3 7.3 0 .6 0 1.1.2 1.6-6-.3-11.3-3.2-15.1-7.6-.6 1.1-1 2.3-1 3.7 0 2.6 1.3 4.7 3.2 6-1.1 0-2.3-.3-3.2-1v.2c0 3.6 2.4 6.5 5.8 7.1-.6.2-1.3.3-1.9.3-.5 0-1 0-1.3-.2 1 2.9 3.6 5 6.8 5-2.4 1.9-5.7 3.1-9.1 3.1-.6 0-1.1 0-1.8-.2 3.2 2.1 7 3.2 11.2 3.2 13.4 0 20.7-11 20.7-20.7v-1c1.7-.7 2.8-2 3.8-3.4z" fill="#fff"/></svg>